<?xml version="1.0" standalone="no"?>
<!DOCTYPE svg PUBLIC "-//W3C//DTD SVG 20010904//EN"
        "http://www.w3.org/TR/2001/REC-SVG-20010904/DTD/svg10.dtd">
<svg version="1.0" xmlns="http://www.w3.org/2000/svg"
     width="260.000000pt" height="260.000000pt" viewBox="0 0 260.000000 260.000000"
     preserveAspectRatio="xMidYMid meet">
    <metadata>
        Created by potrace 1.11, written by Peter Selinger 2001-2013
    </metadata>
    <g transform="translate(0.000000,260.000000) scale(0.100000,-0.100000)"
       fill="#000000" stroke="none">
        <path d="M0 1300 l0 -1300 1300 0 1300 0 0 1300 0 1300 -1300 0 -1300 0 0
-1300z m700 858 c5 -13 55 -270 110 -573 55 -302 104 -558 108 -568 5 -12 44
103 116 340 60 197 115 370 122 385 21 41 43 48 148 48 84 0 98 -2 120 -22 20
-19 47 -95 137 -388 62 -201 115 -368 118 -372 4 -4 53 250 110 565 67 370
109 578 119 590 13 15 35 17 162 17 157 0 170 -4 170 -51 0 -38 -298 -1649
-311 -1680 -16 -40 -49 -49 -174 -49 -104 0 -116 2 -139 23 -20 17 -57 116
-170 452 -136 405 -145 428 -156 400 -7 -16 -72 -210 -146 -430 -107 -319
-139 -405 -159 -422 -24 -21 -36 -23 -144 -23 -104 0 -121 3 -144 20 -14 11
-28 28 -31 38 -11 34 -306 1650 -306 1674 0 44 14 48 177 48 150 0 154 -1 163
-22z"/>
    </g>
</svg>
